<svg width="43" height="46" viewBox="0 0 43 46" fill="none" xmlns="http://www.w3.org/2000/svg">
<path d="M30.3546 19.7656C30.3546 18.7732 29.5327 17.9688 28.5187 17.9688H9.60852C8.59453 17.9688 7.77258 18.7732 7.77258 19.7656C7.77258 20.758 8.59453 21.5625 9.60852 21.5625H28.5187C29.5327 21.5625 30.3546 20.758 30.3546 19.7656Z" fill="white"/>
<path d="M9.60852 25.1562C8.59453 25.1562 7.77258 25.9607 7.77258 26.9531C7.77258 27.9455 8.59453 28.75 9.60852 28.75H21.0933C22.1073 28.75 22.9293 27.9455 22.9293 26.9531C22.9293 25.9607 22.1073 25.1562 21.0933 25.1562H9.60852Z" fill="white"/>
<path d="M13.923 42.4062H7.78284C5.75817 42.4062 4.11096 40.7941 4.11096 38.8125V7.1875C4.11096 5.20591 5.75817 3.59375 7.78284 3.59375H30.3547C32.3794 3.59375 34.0266 5.20591 34.0266 7.1875V18.2383C34.0266 19.2307 34.8485 20.0352 35.8625 20.0352C36.8765 20.0352 37.6984 19.2307 37.6984 18.2383V7.1875C37.6984 3.22431 34.404 0 30.3547 0H7.78284C3.73349 0 0.439087 3.22431 0.439087 7.1875V38.8125C0.439087 42.7757 3.73349 46 7.78284 46H13.923C14.937 46 15.759 45.1955 15.759 44.2031C15.759 43.2107 14.937 42.4062 13.923 42.4062Z" fill="white"/>
<path d="M40.9503 26.0163C38.8028 23.9145 35.3087 23.9144 33.1625 26.0148L23.083 35.8581C22.8689 36.0672 22.711 36.3247 22.6231 36.6079L20.4279 43.6808C20.2333 44.3079 20.4029 44.9888 20.8705 45.4579C21.2208 45.8093 21.6967 46 22.1848 46C22.3481 46 22.5129 45.9786 22.6748 45.9347L30.0851 43.9257C30.39 43.8431 30.668 43.6847 30.892 43.4658L40.9504 33.6399C43.0979 31.5381 43.0979 28.1182 40.9503 26.0163ZM28.6396 40.5886L24.9116 41.5993L26.0026 38.0838L32.8037 31.4421L35.4007 33.9838L28.6396 40.5886ZM38.3553 31.0976L37.9996 31.4451L35.4031 28.9038L35.7576 28.5576C36.4735 27.857 37.6382 27.857 38.354 28.5576C39.0699 29.2582 39.0699 30.3981 38.3553 31.0976Z" fill="white"/>
<path d="M28.5187 10.7812H9.60852C8.59453 10.7812 7.77258 11.5857 7.77258 12.5781C7.77258 13.5705 8.59453 14.375 9.60852 14.375H28.5187C29.5327 14.375 30.3546 13.5705 30.3546 12.5781C30.3546 11.5857 29.5327 10.7812 28.5187 10.7812Z" fill="white"/>
</svg>
