<svg width="39" height="45" viewBox="0 0 39 45" fill="none" xmlns="http://www.w3.org/2000/svg">
<path d="M34.012 13.8882C33.3759 13.8882 32.7703 14.0209 32.2203 14.2594C31.5517 12.5697 29.9115 11.3718 27.9977 11.3718C27.2868 11.3718 26.6135 11.5373 26.0138 11.8315C25.2548 10.3683 23.7338 9.36637 21.9838 9.36637C21.4694 9.36637 20.9755 9.45409 20.5139 9.61364V4.57591C20.5141 2.05288 18.4755 0 15.9694 0C13.4636 0 11.4252 2.05288 11.4252 4.57591V22.7036L8.15212 18.9591C8.12924 18.9335 8.10591 18.9083 8.08167 18.8843C7.22227 18.0243 6.07849 17.5474 4.86106 17.5415C4.85318 17.5415 4.84576 17.5415 4.83788 17.5415C3.62333 17.5415 2.48621 18.0105 1.63394 18.8633C0.131214 20.3665 0.0480324 22.5977 1.40637 24.9858C3.1647 28.0752 5.07606 30.9882 6.76258 33.5587C7.995 35.4371 9.15924 37.2114 10.0103 38.6783C10.7483 39.9514 12.7074 44.08 12.7274 44.1217C12.9817 44.6582 13.5224 45.0002 14.1158 45.0002H33.5506C34.2183 45.0002 34.8094 44.5694 35.0141 43.9343C35.3765 42.8071 38.5564 32.8133 38.5564 28.9538V18.4646C38.5561 15.9409 36.5177 13.8882 34.012 13.8882ZM32.5423 18.4644C32.5423 17.6359 33.2017 16.962 34.012 16.962C34.8227 16.962 35.4821 17.6359 35.4821 18.4644V28.9536C35.4821 31.5185 33.5109 38.4138 32.4232 41.9261H15.085C14.4477 40.6 13.2533 38.1437 12.6692 37.1362C11.7758 35.5956 10.5889 33.787 9.33258 31.872C7.67106 29.3402 5.78818 26.4702 4.07788 23.4656C3.63152 22.6806 3.22243 21.6223 3.80818 21.0365C4.08136 20.7627 4.44924 20.6197 4.84621 20.6155C5.23364 20.6174 5.59803 20.7635 5.87727 21.0277L11.8052 27.8088C12.2264 28.2911 12.9033 28.4612 13.5024 28.2362C14.1021 28.0111 14.4992 27.4376 14.4992 26.7973V4.57591C14.4992 3.74758 15.1588 3.07394 15.9695 3.07394C16.7805 3.07394 17.4401 3.74758 17.4401 4.57591V18.9261C17.4401 19.7749 18.1285 20.463 18.9771 20.463C19.8258 20.463 20.5141 19.7749 20.5141 18.9261V13.9418C20.5141 13.1139 21.1735 12.4405 21.9839 12.4405C22.7947 12.4405 23.4541 13.1139 23.4541 13.9418V20.9308C23.4541 21.78 24.1423 22.4679 24.9909 22.4679C25.8397 22.4679 26.528 21.7802 26.528 20.9308V15.9477C26.528 15.1194 27.1874 14.4456 27.9979 14.4456C28.8088 14.4456 29.4685 15.1194 29.4685 15.9477V22.9371C29.4685 23.7858 30.1567 24.4743 31.0055 24.4743C31.8544 24.4743 32.5426 23.7858 32.5426 22.9371V18.4644H32.5423Z" fill="white"/>
</svg>
