<svg width="58" height="40" viewBox="0 0 58 40" fill="none" xmlns="http://www.w3.org/2000/svg">
<path d="M57.5669 14.2143L50.8789 4.79643C50.5541 4.33887 50.0279 4.06718 49.4673 4.06718H37.8223V2.70028C37.8223 1.74402 37.047 0.96875 36.0908 0.96875H1.61824C0.661989 0.96875 -0.113281 1.74402 -0.113281 2.70028V31.7357C-0.113281 32.692 0.661989 33.4673 1.61824 33.4673H4.93881C5.49548 36.6272 8.30097 39.0535 11.5246 39.0535C14.7483 39.0535 17.5533 36.6272 18.11 33.4673H39.5374C40.0941 36.6272 42.8996 39.0535 46.1233 39.0535C49.3469 39.0535 52.152 36.6272 52.7086 33.4673H56.1553C57.1116 33.4673 57.8868 32.692 57.8868 31.7357V15.2166C57.8868 14.8572 57.7749 14.5072 57.5669 14.2143ZM54.4238 18.3194H45.8755V13.3815H52.6064C52.6462 13.3815 52.6852 13.3784 52.7241 13.3757L54.4238 15.7688V18.3194ZM3.34977 4.43136H34.3597V30.0047H17.8334C16.7856 26.9912 13.6655 25.0862 10.5069 25.5721C8.05626 25.9491 6.0287 27.666 5.21537 30.0047H3.34977V4.43136ZM11.5246 35.5904C9.5298 35.5904 8.04166 33.7 8.33371 31.7641C8.57001 30.2007 9.93116 28.9568 11.5246 28.9568C13.1172 28.9568 14.4779 30.1998 14.7146 31.7623C15.0085 33.6982 13.5203 35.5904 11.5246 35.5904ZM46.1233 35.5904C44.128 35.5904 42.6394 33.6982 42.9328 31.7623C43.17 30.1998 44.5307 28.9568 46.1233 28.9568C47.7158 28.9568 49.0765 30.2002 49.3133 31.7623C49.6071 33.6982 48.119 35.5904 46.1233 35.5904ZM52.4325 30.0047C51.5077 27.3448 48.9451 25.4937 46.1233 25.4937C43.3014 25.4937 40.7388 27.3448 39.814 30.0047H37.8223V7.53023H48.5734L50.2695 9.91887H44.1444C43.1881 9.91887 42.4128 10.6937 42.4128 11.65V20.0509C42.4128 21.0072 43.1881 21.7825 44.1444 21.7825H54.4242V30.0047H52.4325Z" fill="white"/>
</svg>
