<svg width="28" height="34" viewBox="0 0 28 34" fill="none" xmlns="http://www.w3.org/2000/svg">
<path d="M19.1767 18.3679V19.8679H20.6767H25.7076C25.9344 19.8679 26.138 20.0025 26.227 20.2147C26.3108 20.4178 26.2655 20.6595 26.1028 20.823C26.1027 20.8231 26.1025 20.8233 26.1023 20.8235L14.5902 32.3353L14.5881 32.3373C14.4825 32.4434 14.3433 32.4987 14.1942 32.4987C14.0451 32.4987 13.9057 32.4434 13.7995 32.3369L13.7978 32.3353L2.28556 20.8233C2.28534 20.8231 2.28512 20.8229 2.2849 20.8227C2.12575 20.6626 2.07852 20.4225 2.16397 20.2149C2.25384 20.0004 2.45629 19.8679 2.68065 19.8679H7.71152H9.21152V18.3679V3.43729C9.21152 2.7509 9.76881 2.19507 10.4511 2.19507H17.9341C18.6204 2.19507 19.1767 2.75196 19.1767 3.43729V18.3679Z" stroke="white" stroke-width="3"/>
</svg>
