<svg width="348" height="316" viewBox="0 0 348 316" fill="none" xmlns="http://www.w3.org/2000/svg">
<path d="M302.06 113.395C298.654 101.578 294.434 90.3822 289.105 79.3016C288.478 77.9988 286.439 78.2006 286.121 79.5994C281.596 99.5309 280.952 121.091 287.506 140.542C293.037 131.85 298.008 122.791 302.06 113.395Z" fill="#DD9E23"/>
<path d="M287.501 140.548C300.229 135.442 312.019 129.496 323.544 122.491C324.862 121.69 326.486 122.995 325.838 124.342C315.764 145.278 294.426 165.127 269.011 164.952C275.769 157.252 282.049 149.127 287.501 140.548Z" fill="#DD9E23"/>
<path d="M269.017 164.946C269.323 152.969 268.676 141.372 266.927 129.585C266.72 128.187 264.74 127.818 263.998 129.045C253.56 146.285 246.568 166.477 247.054 186.307C254.883 179.689 262.314 172.593 269.017 164.946Z" fill="#DD9E23"/>
<path d="M247.049 186.313C260.61 185.098 273.606 182.878 286.679 179.642C288.187 179.269 289.301 180.968 288.261 182.062C272.216 198.934 245.895 211.451 222.074 204.331C230.818 198.885 239.246 192.918 247.049 186.313Z" fill="#DD9E23"/>
<path d="M222.081 204.328C226.016 193.014 228.92 181.807 230.822 170.116C231.048 168.726 229.276 167.835 228.188 168.798C212.924 182.309 200.195 199.739 194.557 218.707C204.06 214.527 213.331 209.786 222.081 204.328Z" fill="#DD9E23"/>
<path d="M194.551 218.71C207.856 221.259 220.946 222.719 234.409 223.251C235.964 223.313 236.501 225.241 235.17 226.001C214.602 237.737 185.556 242.427 164.939 229.148C175.041 226.332 185 222.918 194.551 218.71Z" fill="#DD9E23"/>
<path d="M164.946 229.146C172.291 219.393 178.584 209.455 184.05 198.752C184.698 197.484 183.276 196.143 181.937 196.767C163.031 205.571 145.279 218.803 133.707 235.346C144.247 233.986 154.74 231.998 164.946 229.146Z" fill="#DD9E23"/>
<path d="M96.1219 233.234C107.271 233.427 117.856 232.886 127.582 231.626C127.584 231.625 127.586 231.625 127.589 231.625L127.593 231.624C138.445 230.224 148.645 228.201 157.913 225.611C157.915 225.61 157.918 225.609 157.92 225.608C168.318 222.711 177.993 219.302 186.677 215.476C186.679 215.474 186.682 215.473 186.684 215.472L186.687 215.471C196.477 211.165 205.471 206.468 213.421 201.508C213.425 201.505 213.429 201.503 213.433 201.5C222.442 195.888 230.598 190.004 237.676 184.011C237.679 184.009 237.681 184.007 237.684 184.005C245.759 177.176 252.936 170.197 259.016 163.262L259.018 163.259C265.985 155.321 272.025 147.351 276.968 139.573C276.97 139.569 276.974 139.566 276.976 139.562C282.675 130.606 287.43 121.741 291.107 113.211C291.151 113.108 291.205 113.01 291.256 112.91C297.12 99.8068 301.561 85.9723 304.447 71.7782C305.028 68.9245 307.952 67.0551 310.979 67.6025C314.005 68.1487 315.989 70.906 315.408 73.761C312.343 88.8321 307.613 103.526 301.351 117.433C301.308 117.528 301.257 117.616 301.21 117.707C297.349 126.573 292.422 135.744 286.545 144.978C286.544 144.98 286.543 144.981 286.542 144.983C281.314 153.208 274.954 161.606 267.635 169.946C267.63 169.952 267.625 169.96 267.619 169.966C261.188 177.303 253.624 184.663 245.137 191.839L245.133 191.842C237.646 198.18 229.05 204.385 219.583 210.282L219.579 210.285C219.575 210.287 219.573 210.289 219.569 210.29C211.164 215.532 201.688 220.484 191.405 225.007C191.401 225.009 191.397 225.01 191.394 225.012C182.214 229.055 172.023 232.65 161.102 235.694C161.099 235.695 161.097 235.696 161.094 235.697C151.283 238.439 140.52 240.576 129.105 242.05L129.101 242.05C117.893 244.246 106.118 243.978 94.3934 243.775C93.508 243.759 94.1984 243.531 93.4623 243.173C91.6341 242.283 90.3989 240.469 90.4395 238.398C90.4966 235.493 93.0406 233.181 96.1219 233.234Z" fill="#DBAB00"/>
</svg>
