<svg width="365" height="316" viewBox="0 0 365 316" fill="none" xmlns="http://www.w3.org/2000/svg">
<path d="M68.0626 114.897C71.469 103.08 75.6887 91.8842 81.0173 80.8035C81.6442 79.5007 83.684 79.7025 84.0012 81.1014C88.5261 101.033 89.1706 122.593 82.6169 142.044C77.0856 133.352 72.1145 124.293 68.0626 114.897Z" fill="#DD9E23"/>
<path d="M82.6212 142.051C69.8936 136.944 58.1035 130.998 46.5786 123.993C45.2609 123.192 43.6363 124.497 44.2842 125.844C54.3588 146.78 75.6963 166.629 101.111 166.454C94.3538 158.754 88.0735 150.629 82.6212 142.051Z" fill="#DD9E23"/>
<path d="M101.106 166.448C100.8 154.471 101.447 142.874 103.195 131.087C103.403 129.689 105.383 129.32 106.125 130.547C116.563 147.787 123.555 167.979 123.069 187.809C115.24 181.191 107.809 174.095 101.106 166.448Z" fill="#DD9E23"/>
<path d="M123.074 187.815C109.512 186.6 96.5163 184.381 83.4441 181.145C81.9362 180.771 80.8215 182.47 81.8619 183.565C97.9067 200.436 124.228 212.953 148.048 205.833C139.305 200.388 130.877 194.42 123.074 187.815Z" fill="#DD9E23"/>
<path d="M148.041 205.829C144.107 194.516 141.203 183.309 139.301 171.618C139.074 170.228 140.846 169.336 141.934 170.3C157.198 183.811 169.927 201.241 175.565 220.208C166.062 216.029 156.792 211.288 148.041 205.829Z" fill="#DD9E23"/>
<path d="M175.572 220.212C162.267 222.761 149.177 224.22 135.714 224.753C134.158 224.814 133.621 226.743 134.953 227.503C155.52 239.238 184.566 243.929 205.184 230.65C195.081 227.834 185.123 224.419 175.572 220.212Z" fill="#DD9E23"/>
<path d="M205.177 230.648C197.831 220.895 191.538 210.957 186.073 200.254C185.425 198.986 186.846 197.645 188.185 198.269C207.091 207.073 224.844 220.305 236.415 236.848C225.875 235.488 215.383 233.5 205.177 230.648Z" fill="#DD9E23"/>
<path d="M268.83 233.234C257.681 233.428 247.097 232.886 237.37 231.626C237.368 231.625 237.366 231.625 237.364 231.625C237.362 231.625 237.361 231.624 237.359 231.624C226.508 230.224 216.307 228.201 207.039 225.611C207.037 225.61 207.035 225.609 207.033 225.608C196.634 222.711 186.959 219.302 178.275 215.476C178.273 215.474 178.27 215.474 178.268 215.472C178.267 215.472 178.267 215.471 178.266 215.471C168.475 211.165 159.481 206.468 151.532 201.508C151.528 201.505 151.523 201.503 151.52 201.501C142.511 195.888 134.354 190.004 127.276 184.011C127.273 184.009 127.271 184.007 127.268 184.005C119.193 177.176 112.016 170.197 105.937 163.262C105.936 163.26 105.935 163.26 105.935 163.26C98.9675 155.321 92.9277 147.351 87.9841 139.573C87.9818 139.569 87.9785 139.566 87.9765 139.562C82.2772 130.606 77.5226 121.741 73.8452 113.211C73.8009 113.108 73.7472 113.01 73.6961 112.91C67.8323 99.8068 63.3913 85.9723 60.5048 71.7782C59.9242 68.9245 56.9998 67.0551 53.9732 67.6025C50.9474 68.1487 48.9632 70.906 49.5445 73.761C52.6096 88.8321 57.3388 103.526 63.6012 117.433C63.6441 117.528 63.6951 117.616 63.7425 117.707C67.6031 126.573 72.5305 135.744 78.4074 144.978C78.4084 144.98 78.409 144.981 78.41 144.983C83.6381 153.208 89.9987 161.607 97.3168 169.946C97.3227 169.952 97.3276 169.96 97.3329 169.966C103.764 177.303 111.329 184.663 119.816 191.839C119.817 191.84 119.818 191.841 119.819 191.842C127.306 198.18 135.903 204.385 145.37 210.282C145.371 210.283 145.372 210.284 145.373 210.285C145.377 210.287 145.38 210.289 145.383 210.29C153.788 215.533 163.264 220.484 173.547 225.007C173.551 225.009 173.555 225.01 173.559 225.012C182.738 229.055 192.929 232.65 203.85 235.694C203.853 235.695 203.855 235.696 203.858 235.697C213.67 238.439 224.432 240.577 235.847 242.05C235.849 242.05 235.85 242.05 235.852 242.05C246.146 243.385 257.311 243.958 269.036 243.755C269.921 243.74 270.754 243.531 271.49 243.173C273.318 242.283 274.553 240.469 274.513 238.399C274.456 235.493 271.912 233.181 268.83 233.234Z" fill="#DBAB00"/>
</svg>
